<?xml version="1.0" encoding="UTF-8"?>
<svg version="1.1" xmlns="http://www.w3.org/2000/svg" width="986" height="808">
<path d="M0 0 C3.37623735 2.92728222 3.37623735 2.92728222 7.53515625 3.5625 C10.32418733 2.77625141 13.04905058 1.85161315 15.78955078 0.91235352 C24.20557064 -1.89200486 31.5951859 -2.69319382 40.45532227 -1.94946289 C44.98992314 -1.63199207 44.98992314 -1.63199207 49.03808594 -3.38720703 C50.15173158 -4.43801268 51.25463889 -5.50027813 52.34838867 -6.57177734 C67.41719288 -19.18726008 97.04683361 -22.0332369 115.89013672 -20.48974609 C132.00054162 -18.71912293 147.43915867 -11.15250816 159.3203125 -0.22265625 C160.14917969 0.5146875 160.97804688 1.25203125 161.83203125 2.01171875 C174.04945402 13.46204453 184.44953798 30.33699956 185.48144531 47.44946289 C185.5273565 50.57969844 185.55558919 53.70929973 185.5703125 56.83984375 C185.60125 58.44375977 185.60125 58.44375977 185.6328125 60.08007812 C185.66973563 67.71855089 184.50234218 74.46359494 182.3203125 81.77734375 C183.40828125 81.99648437 184.49625 82.215625 185.6171875 82.44140625 C202.94440047 86.10662607 217.56377676 93.18567185 228.3203125 107.77734375 C230.66474877 111.65468065 232.57576287 115.59803326 234.3203125 119.77734375 C234.66191406 120.59332031 235.00351562 121.40929687 235.35546875 122.25 C240.92909178 138.60793549 237.73203992 157.73941856 230.53320312 172.95141602 C223.454558 187.28230161 214.34515321 199.52614077 203.578125 211.296875 C202.13649204 212.88067592 200.71254784 214.48088455 199.3125 216.1015625 C188.22652535 228.85254095 175.28882664 239.98915662 162.3203125 250.77734375 C161.7128418 251.28442871 161.10537109 251.79151367 160.47949219 252.31396484 C145.54498935 264.73875967 129.88064255 276.20070663 114.22167969 287.68774414 C110.34068044 290.53721464 106.47744819 293.40639433 102.64453125 296.3203125 C101.90493164 296.88145752 101.16533203 297.44260254 100.40332031 298.02075195 C99.00497449 299.08415035 97.60963091 300.15151184 96.21777344 301.22338867 C91.54103475 304.77734375 91.54103475 304.77734375 89.3203125 304.77734375 C89.124375 305.65390625 88.9284375 306.53046875 88.7265625 307.43359375 C76.0892364 361.03328721 47.1551063 411.65629107 3.3203125 445.77734375 C2.34964844 446.56496094 1.37898438 447.35257813 0.37890625 448.1640625 C-31.14337456 473.29509239 -70.14785818 489.05571065 -109.6796875 495.77734375 C-110.43813965 495.90866699 -111.1965918 496.03999023 -111.97802734 496.17529297 C-151.8902031 502.73078279 -199.52467508 496.96003301 -235.29296875 477.52734375 C-240.83798911 475.78488236 -246.7062734 478.3147919 -251.96484375 480.18359375 C-253.381058 480.68079373 -254.7973198 481.17785827 -256.21362305 481.67480469 C-257.31980484 482.0667804 -257.31980484 482.0667804 -258.44833374 482.4666748 C-385.61596224 527.4088804 -385.61596224 527.4088804 -434.17578125 505.5625 C-447.96694868 498.53623075 -458.57123772 487.48166587 -463.6796875 472.77734375 C-470.44250463 451.36631948 -465.57964744 431.8108178 -455.61279297 412.50976562 C-454.37818026 410.21755951 -453.05475949 407.98773985 -451.6796875 405.77734375 C-452.12699219 405.37789551 -452.57429688 404.97844727 -453.03515625 404.56689453 C-457.85082775 400.04771026 -460.78440711 395.54740744 -463.6796875 389.65234375 C-464.7000694 387.63128244 -465.72095248 385.61047412 -466.7421875 383.58984375 C-467.02868164 383.01773163 -467.31517578 382.44561951 -467.61035156 381.85617065 C-469.99476709 377.10052567 -472.43831837 372.37718207 -474.89624023 367.65914917 C-476.97457294 363.66863291 -479.04334179 359.673193 -481.11132812 355.67730713 C-482.14854946 353.67677294 -483.18886566 351.67784001 -484.23242188 349.68060303 C-501.28188652 317.00678304 -501.28188652 317.00678304 -496.0546875 297.96484375 C-494.11446992 292.33348052 -491.71692915 288.1299949 -487.6796875 283.77734375 C-487.0196875 283.06191406 -486.3596875 282.34648437 -485.6796875 281.609375 C-480.95115493 276.70352246 -475.88246449 272.34158502 -470.5546875 268.1015625 C-468.60187376 266.52286118 -466.68561361 264.89807459 -464.8046875 263.234375 C-448.35735391 248.77734375 -448.35735391 248.77734375 -439.6796875 248.77734375 C-439.30263672 247.68486328 -439.30263672 247.68486328 -438.91796875 246.5703125 C-434.10196502 235.70771734 -420.93051185 226.35078146 -410.6796875 220.77734375 C-410.0196875 220.77734375 -409.3596875 220.77734375 -408.6796875 220.77734375 C-408.71449219 220.00777344 -408.74929688 219.23820312 -408.78515625 218.4453125 C-410.2240296 157.3959717 -385.63505018 94.85790662 -347.6796875 47.77734375 C-346.85024117 46.72136928 -346.02081282 45.66538069 -345.19140625 44.609375 C-332.33661267 28.7612802 -317.26440788 13.67860397 -300.6796875 1.77734375 C-299.59241821 0.96271199 -298.50649853 0.1462761 -297.421875 -0.671875 C-224.0441543 -55.35874019 -122.98190293 -65.11513718 0 0 Z " fill="#000F3C" transform="translate(621.6796875,164.22265625)"/>
<path d="M0 0 C1.14210938 -0.02900391 2.28421875 -0.05800781 3.4609375 -0.08789062 C13.10845085 -0.15915067 22.64695298 1.01533772 29.875 7.9375 C32.79428937 11.79895612 33.49549272 14.89858854 33.1015625 19.69140625 C28.16158215 46.86129816 0.45943146 70.39256944 -19.375 87.3125 C-19.90867187 87.77325928 -20.44234375 88.23401855 -20.9921875 88.70874023 C-29.256371 95.8347348 -37.7404933 102.64301395 -46.375 109.3125 C-47.12023926 109.8895166 -47.86547852 110.4665332 -48.63330078 111.06103516 C-50.98198549 112.87757709 -53.33402358 114.68967154 -55.6875 116.5 C-56.43547852 117.07733887 -57.18345703 117.65467773 -57.95410156 118.24951172 C-58.99195801 119.04446045 -58.99195801 119.04446045 -60.05078125 119.85546875 C-60.66864502 120.33008545 -61.28650879 120.80470215 -61.9230957 121.29370117 C-63.375 122.3125 -63.375 122.3125 -64.375 122.3125 C-65.85098683 104.81511767 -65.85098683 104.81511767 -62.6171875 99.33203125 C-60.3125 97.1875 -60.3125 97.1875 -57.8359375 95.26171875 C-52.37831571 90.93893577 -46.98141653 83.38415385 -45.9375 76.375 C-46.52664258 72.25100197 -48.19881047 70.89777055 -51.375 68.3125 C-87.22759174 56.36163609 -149.10628674 90.01634424 -182.375 104.3125 C-183.44411621 104.77124512 -184.51323242 105.22999023 -185.61474609 105.70263672 C-209.51912173 116.00247398 -233.03512015 127.11492193 -256.4375 138.5 C-257.28965088 138.91361786 -258.14180176 139.32723572 -259.01977539 139.75338745 C-271.26753761 145.70420492 -283.35762604 151.91017156 -295.375 158.3125 C-296.62293241 158.97408374 -297.87104776 159.63532258 -299.11938477 160.29614258 C-313.98456956 168.17715764 -328.73836939 176.22759479 -343.34375 184.58203125 C-346.0442838 186.12370196 -348.74875329 187.65821116 -351.45518494 189.1894989 C-366.9367566 197.95051705 -382.25506368 206.93683138 -397.375 216.3125 C-398.17631348 216.80637207 -398.97762695 217.30024414 -399.80322266 217.80908203 C-425.38013974 233.5926269 -450.81580996 250.37784318 -473.375 270.3125 C-474.42303249 271.21370984 -475.4712109 272.11475002 -476.51953125 273.015625 C-486.01069502 281.29707258 -495.96699104 291.08221903 -497.9375 304 C-497.69742416 307.54353621 -497.69742416 307.54353621 -494.625 309.6875 C-485.87711126 314.06144437 -475.81214314 312.98358789 -466.5625 310.6875 C-463.3671875 310.09765625 -463.3671875 310.09765625 -460.375 310.3125 C-456.60778257 313.14059627 -454.11922904 316.52584071 -451.375 320.3125 C-450.715 320.6425 -450.055 320.9725 -449.375 321.3125 C-449.375 321.9725 -449.375 322.6325 -449.375 323.3125 C-512.32116956 344.06765133 -512.32116956 344.06765133 -542.375 346.3125 C-543.42349121 346.39322754 -544.47198242 346.47395508 -545.55224609 346.55712891 C-549.01289062 346.80308555 -552.47293388 347.00539885 -555.9375 347.1875 C-556.99694824 347.24945557 -558.05639648 347.31141113 -559.14794922 347.37524414 C-568.69721147 347.7347864 -578.84163589 346.7158595 -586.375 340.3125 C-590.17123738 336.51626262 -591.19636575 333.6715274 -591.375 328.3125 C-589.04516173 302.585137 -559.67300223 277.34503761 -541.19921875 261.515625 C-539.48264971 260.12202525 -537.7526764 258.74472445 -536.0078125 257.38671875 C-533.4793413 255.3947036 -531.06804091 253.31586274 -528.65209961 251.19116211 C-520.07119705 243.6659195 -510.97603022 236.88837879 -501.79980469 230.11132812 C-499.55642992 228.4470928 -497.32595229 226.76761447 -495.1015625 225.078125 C-486.04476863 218.20107948 -476.81157659 211.6571155 -467.375 205.3125 C-466.39063965 204.64943848 -465.4062793 203.98637695 -464.39208984 203.30322266 C-390.80890767 153.80261188 -312.7439987 108.80990131 -231.47265625 73.12890625 C-227.72408776 71.47807258 -224.0158309 69.75028935 -220.3125 68 C-153.99840947 36.84307472 -74.30198319 0.62473641 0 0 Z " fill="#FEC710" transform="translate(786.375,287.6875)"/>
<path d="M0 0 C0 0.66 0 1.32 0 2 C-0.6290625 2.21914062 -1.258125 2.43828125 -1.90625 2.6640625 C-8.75945583 5.20305141 -15.70777582 8.1646077 -19.58984375 14.66015625 C-23.34500442 18.30576604 -27.15415527 17.56832981 -32.1875 17.5 C-51.01785076 17.84568092 -69.06586236 23.55965794 -82.4375 37.375 C-87.52059967 42.33634878 -91.6038435 43.07553475 -98.37280273 43.88696289 C-109.54772554 45.35307509 -121.38453878 51.7907405 -130 59 C-130.4640625 59.70125 -130.928125 60.4025 -131.40625 61.125 C-133 63 -133 63 -135.35546875 63.546875 C-136.29003906 63.61390625 -137.22460938 63.6809375 -138.1875 63.75 C-148.62777971 65.14881945 -163.01798565 71.63518578 -169.625 80.0625 C-172.31087319 82.84454256 -174.41910823 83.51099689 -178.1875 84.25 C-190.04478135 86.72211733 -201.15100134 94.03902368 -211.34765625 100.3828125 C-213.5648965 101.73470862 -215.79814657 103.027558 -218.05859375 104.3046875 C-231.34949781 111.17170263 -231.34949781 111.17170263 -241 122 C-242.258125 122.226875 -243.51625 122.45375 -244.8125 122.6875 C-250.42636602 123.78134507 -254.7757735 126.5582437 -259.59375 129.5390625 C-262 131 -262 131 -263 131 C-269.445597 102.24272107 -265.07703263 71.47891218 -249.6875 46.3125 C-239.67006526 31.40905589 -228.33229902 17.91358549 -214 7 C-213.46455566 6.57895996 -212.92911133 6.15791992 -212.37744141 5.72412109 C-187.06273814 -14.17171026 -157.07217184 -26.36186723 -125.26904297 -30.69042969 C-123.39817081 -30.94567672 -121.53096773 -31.22766774 -119.66503906 -31.5168457 C-76.91628067 -37.15232351 -35.30131851 -23.53421234 0 0 Z " fill="#21B14C" transform="translate(569,188)"/>
<path d="M0 0 C2.62185073 3.71982934 2.69921136 8.2338348 3.18359375 12.62890625 C3.28376801 13.48324249 3.38394226 14.33757874 3.4871521 15.21780396 C3.81131276 17.99857269 4.12465393 20.78043756 4.4375 23.5625 C4.65723524 25.47182571 4.8775337 27.38108669 5.09838867 29.2902832 C5.53661456 33.09113052 5.97015893 36.89246521 6.39941406 40.69433594 C6.84660544 44.65484438 7.30151645 48.61435705 7.76322937 52.57319641 C8.11701362 55.61083677 8.46476065 58.64916256 8.8125 61.6875 C8.99800415 63.28476929 8.99800415 63.28476929 9.18725586 64.91430664 C9.48836721 67.60793683 9.76102297 70.30021283 10 73 C10.06429199 73.7108374 10.12858398 74.4216748 10.19482422 75.15405273 C10.42261229 79.52905704 10.42261229 79.52905704 8.53125 81.63671875 C7.8609375 81.98347656 7.190625 82.33023438 6.5 82.6875 C5.40751953 83.27144531 5.40751953 83.27144531 4.29296875 83.8671875 C3.53628906 84.24101562 2.77960938 84.61484375 2 85 C1.29488281 85.39445312 0.58976562 85.78890625 -0.13671875 86.1953125 C-3.90488874 88.24806796 -6.60593538 89.61611692 -11 89 C-13.2109375 87.3125 -13.2109375 87.3125 -15.375 85 C-16.15488281 84.175 -16.93476563 83.35 -17.73828125 82.5 C-20.26219891 79.71017737 -22.77532553 76.91652238 -25.2265625 74.0625 C-27.27102383 71.68480048 -29.35192764 69.34169529 -31.4375 67 C-32.45650391 65.8553125 -32.45650391 65.8553125 -33.49609375 64.6875 C-33.99238281 64.130625 -34.48867188 63.57375 -35 63 C-34.86722656 64.30710937 -34.73445313 65.61421875 -34.59765625 66.9609375 C-33.43577047 78.63360665 -32.54367341 90.28240723 -32 102 C-34.55537921 103.51340907 -37.11812213 105.01070003 -39.6875 106.5 C-40.7693457 107.14388672 -40.7693457 107.14388672 -41.87304688 107.80078125 C-44.78733334 109.47749401 -47.38241735 110.85036544 -50.66015625 111.64453125 C-54.34619562 110.62917817 -56.34333288 107.99149793 -58.75 105.1875 C-59.27803223 104.59437012 -59.80606445 104.00124023 -60.35009766 103.39013672 C-64.20815317 99.02219572 -67.86898219 94.50202584 -71.515625 89.95703125 C-75.73318421 84.93707477 -80.27223068 80.21740017 -84.765625 75.4453125 C-91.22230505 68.58647352 -97.16635814 61.39433046 -103 54 C-101.66763804 49.6084159 -100.18153196 48.06662773 -96.1875 45.875 C-95.33542969 45.39804687 -94.48335938 44.92109375 -93.60546875 44.4296875 C-92.74566406 43.95789063 -91.88585937 43.48609375 -91 43 C-90.15050781 42.42507813 -89.30101562 41.85015625 -88.42578125 41.2578125 C-86 40 -86 40 -83.98046875 40.0078125 C-81.10413296 41.44881702 -79.43310372 43.46413651 -77.3125 45.875 C-76.87969727 46.36387695 -76.44689453 46.85275391 -76.00097656 47.35644531 C-72.24075392 51.63701924 -68.63066814 56.04071813 -65.05078125 60.47265625 C-62.42873496 63.70401615 -59.72523793 66.8554947 -57 70 C-57.54500732 60.37780172 -58.72025263 50.86690186 -59.98364258 41.31640625 C-60.11407959 40.31480469 -60.2445166 39.31320312 -60.37890625 38.28125 C-60.4982251 37.38470703 -60.61754395 36.48816406 -60.74047852 35.56445312 C-61.00060639 32.99400796 -61.18379412 30.57914367 -61 28 C-56.98789713 23.86251891 -51.28745909 20.64997149 -45.609375 19.52734375 C-41.65474941 20.24367563 -39.75659909 22.89187356 -37.25 25.8125 C-36.72849365 26.39837891 -36.2069873 26.98425781 -35.66967773 27.58789062 C-31.6553613 32.13355881 -27.79774541 36.8067033 -24.03515625 41.5625 C-21.83034751 44.20319224 -19.46336508 46.60089661 -17 49 C-17.49060892 40.67656583 -18.60867139 32.51224801 -19.98364258 24.29589844 C-20.84384208 18.93386424 -21.66993518 13.42776884 -21 8 C-16.81789811 2.80842525 -6.58339598 -2.558957 0 0 Z " fill="#F7F3C2" transform="translate(481,265)"/>
<path d="M0 0 C9.59107138 7.34437453 16.19749889 17.56565695 18.3203125 29.609375 C19.73110485 41.71488352 16.36488347 53.02665141 8.96484375 62.796875 C-0.0204057 72.39813446 -12.89719172 77.715595 -25.9375 78.1875 C-37.78498588 77.73072946 -47.73287771 73.76538948 -56.4375 65.6875 C-65.7190506 55.10964346 -69.08553675 43.48386143 -68.4375 29.6875 C-67.41465957 19.61982777 -62.96703159 10.53826878 -55.4375 3.6875 C-38.50250771 -8.66146563 -18.39152259 -12.20603293 0 0 Z " fill="#F7F3C2" transform="translate(562.4375,246.3125)"/>
<path d="M0 0 C-0.3595747 20.13618334 -16.04405644 39.75249821 -29 54 C-29.58007812 54.66257812 -30.16015625 55.32515625 -30.7578125 56.0078125 C-48.13008308 74.77684855 -77.12038056 86.76030227 -102.375 88.31640625 C-121.94151558 89.07159013 -140.17253579 83.65212089 -156 72 C-156 71.34 -156 70.68 -156 70 C-141.13215668 62.4550988 -126.21632483 55.07612618 -111.06713867 48.10864258 C-109.89900635 47.57134521 -108.73087402 47.03404785 -107.52734375 46.48046875 C-106.93153 46.20642715 -106.33571625 45.93238556 -105.72184753 45.65003967 C-98.58034131 42.3575037 -91.48287052 38.97221627 -84.37918091 35.59912109 C-9.34486062 0 -9.34486062 0 0 0 Z " fill="#21B04C" transform="translate(668,412)"/>
<path d="M0 0 C9.5202889 7.86108457 15.30715502 17.91293584 16.55859375 30.21875 C16.6359375 30.88648438 16.71328125 31.55421875 16.79296875 32.2421875 C17.33565699 40.59355651 13.90763947 48.66542949 8.74609375 55.15625 C1.83412916 62.12752518 -6.18676576 64.66844776 -15.53271484 67.06884766 C-17.57428679 67.59578399 -19.60712178 68.14986017 -21.640625 68.70703125 C-22.95139161 69.05371814 -24.26257702 69.39882633 -25.57421875 69.7421875 C-26.74871582 70.05075684 -27.92321289 70.35932617 -29.13330078 70.67724609 C-32.80690265 71.27857812 -34.94947814 71.57091257 -38.44140625 70.21875 C-40.1281484 67.497141 -41.2745391 65.16032593 -42.44140625 62.21875 C-42.79879883 61.37902649 -43.15619141 60.53930298 -43.52441406 59.6741333 C-44.73318703 56.81703943 -45.9027991 53.94608362 -47.06640625 51.0703125 C-47.49518066 50.01774261 -47.92395508 48.96517273 -48.36572266 47.88070679 C-49.72725714 44.53625494 -51.08436409 41.19002679 -52.44140625 37.84375 C-53.35258012 35.60405092 -54.26403584 33.36446648 -55.17578125 31.125 C-59.70433411 19.99433388 -59.70433411 19.99433388 -61.33496094 15.94024658 C-62.08008923 14.10747267 -62.84153173 12.28125682 -63.61816406 10.46160889 C-64.16875488 9.15295868 -64.16875488 9.15295868 -64.73046875 7.81787109 C-65.05998535 7.05074799 -65.38950195 6.28362488 -65.72900391 5.49325562 C-66.53635662 2.91559948 -66.70189935 0.90427106 -66.44140625 -1.78125 C-62.35512371 -5.35886666 -56.72832399 -6.18190055 -51.56640625 -7.40625 C-50.69371094 -7.6228125 -49.82101562 -7.839375 -48.921875 -8.0625 C-30.7615821 -12.4865112 -15.51067508 -11.31658854 0 0 Z " fill="#F7F3C2" transform="translate(758.44140625,188.78125)"/>
<path d="M0 0 C7.03332437 4.9221797 11.87395488 11.157601 13.39453125 19.67578125 C14.28391321 26.26171098 13.04403195 31.12161412 9.39453125 36.67578125 C8.73453125 37.33578125 8.07453125 37.99578125 7.39453125 38.67578125 C12.1149367 42.07400925 16.85468667 45.36623618 21.80859375 48.4140625 C22.57437744 48.89061279 23.34016113 49.36716309 24.12915039 49.8581543 C25.66727178 50.81135401 27.21330151 51.75192207 28.76733398 52.67895508 C34.17512379 56.0511153 34.17512379 56.0511153 35.390625 59.51171875 C35.39191406 60.22585938 35.39320313 60.94 35.39453125 61.67578125 C31.96514996 64.65140217 28.21041795 65.98706327 23.95703125 67.36328125 C22.97379883 67.70069336 22.97379883 67.70069336 21.97070312 68.04492188 C18.31226807 69.25216875 15.23441935 70.03570133 11.39453125 69.67578125 C9.2980957 68.49829102 9.2980957 68.49829102 7.2578125 66.8671875 C6.51595703 66.28517578 5.77410156 65.70316406 5.00976562 65.10351562 C3.86991211 64.18022461 3.86991211 64.18022461 2.70703125 63.23828125 C1.18317033 62.03014089 -0.34152913 60.82305722 -1.8671875 59.6171875 C-2.53709717 59.07779541 -3.20700684 58.53840332 -3.8972168 57.98266602 C-5.5808335 56.60964861 -5.5808335 56.60964861 -7.60546875 55.67578125 C-7.15100911 57.09369533 -6.69171931 58.51006171 -6.23046875 59.92578125 C-5.97523438 60.7146875 -5.72 61.50359375 -5.45703125 62.31640625 C-4.66923588 64.67242846 -4.66923588 64.67242846 -3.51171875 66.73828125 C-2.13464805 69.68236344 -2.48255225 72.47995231 -2.60546875 75.67578125 C-9.28409051 78.69229208 -15.24474641 81.25112419 -22.60546875 81.67578125 C-25.41474677 77.30069404 -27.45315806 72.7101418 -29.51953125 67.95703125 C-29.89102295 67.10985535 -30.26251465 66.26267944 -30.64526367 65.38983154 C-31.84399656 62.65340033 -33.03762017 59.91478213 -34.23046875 57.17578125 C-35.04726451 55.30431887 -35.86415911 53.43289962 -36.68115234 51.56152344 C-38.27640474 47.90581162 -39.86926034 44.2490665 -41.4609375 40.59179688 C-43.22347584 36.54538969 -45.0035345 32.507234 -46.79296875 28.47265625 C-47.60575408 26.62382333 -48.41828958 24.77488053 -49.23046875 22.92578125 C-49.58963379 22.12591797 -49.94879883 21.32605469 -50.31884766 20.50195312 C-51.94159975 16.77137359 -53.04094547 13.77248822 -52.60546875 9.67578125 C-46.11961915 5.97201977 -39.321619 3.38199583 -32.29296875 0.92578125 C-30.98537598 0.46739868 -30.98537598 0.46739868 -29.65136719 -0.00024414 C-19.3432076 -3.54255679 -9.97284936 -5.57537248 0 0 Z " fill="#F8F4C2" transform="translate(624.60546875,215.32421875)"/>
<path d="M0 0 C2.89515226 1.07415681 4.46074286 2.34723289 6.703125 4.47265625 C7.57066406 5.28476562 8.43820312 6.096875 9.33203125 6.93359375 C10.06510498 7.63307129 10.06510498 7.63307129 10.81298828 8.34667969 C12.65132523 10.09909258 14.50262653 11.83715123 16.35546875 13.57421875 C19.2620355 16.30154218 22.1640883 19.03354293 25.0625 21.76953125 C28.53092396 25.04237888 32.00406809 28.31003923 35.48706055 31.56738281 C36.74292073 32.74190281 37.99703074 33.91829735 39.24926758 35.09667969 C41.97062908 37.64728765 44.70387766 40.15257952 47.57421875 42.53515625 C54.9335219 48.71488315 54.9335219 48.71488315 55.578125 52.97265625 C55.536875 53.94203125 55.495625 54.91140625 55.453125 55.91015625 C41.98344391 66.7836403 41.98344391 66.7836403 36.953125 67.03515625 C34.42137708 65.89586969 32.87239398 64.65834753 30.796875 62.83984375 C29.85618164 62.0197583 29.85618164 62.0197583 28.89648438 61.18310547 C28.42017578 60.76303223 27.94386719 60.34295898 27.453125 59.91015625 C16.33811763 65.10140633 16.33811763 65.10140633 8.66503906 73.88623047 C8.20932087 77.33917217 8.62944178 80.2142557 9.2109375 83.66015625 C9.453125 86.91015625 9.453125 86.91015625 7.8984375 89.08203125 C5.05488818 91.20787962 2.17746602 93.22036863 -0.796875 95.16015625 C-1.87453125 95.8665625 -2.9521875 96.57296875 -4.0625 97.30078125 C-5.29226563 98.09742188 -5.29226563 98.09742188 -6.546875 98.91015625 C-8.47351074 98.19166565 -8.47351074 98.19166565 -10.546875 96.91015625 C-11.33215332 94.87657166 -11.33215332 94.87657166 -11.72070312 92.40600586 C-11.86773682 91.50679413 -12.01477051 90.6075824 -12.16625977 89.68112183 C-12.29186279 88.76670319 -12.41746582 87.85228455 -12.546875 86.91015625 C-12.7169104 85.69067795 -12.7169104 85.69067795 -12.89038086 84.44656372 C-13.21126936 81.95907915 -13.49388811 79.46987829 -13.765625 76.9765625 C-13.86903198 76.0591478 -13.97243896 75.14173309 -14.07897949 74.19651794 C-14.40564249 71.28899836 -14.72630168 68.38085282 -15.046875 65.47265625 C-15.26133761 63.55920203 -15.47617885 61.64579022 -15.69140625 59.73242188 C-16.79791243 49.85927449 -17.87105754 39.9829863 -18.8861084 30.09999084 C-19.22737339 26.80414898 -19.59891221 23.52463462 -20.04223633 20.24023438 C-20.45289537 17.04369606 -20.55184798 14.98064972 -19.546875 11.91015625 C-15.94660788 8.14138989 -12.04234388 5.56682606 -7.546875 2.91015625 C-6.26876953 2.01490234 -6.26876953 2.01490234 -4.96484375 1.1015625 C-2.546875 -0.08984375 -2.546875 -0.08984375 0 0 Z " fill="#F7F3C2" transform="translate(293.546875,369.08984375)"/>
<path d="M0 0 C7.07725512 2.75490468 10.87331388 6.55412164 14.2421875 13.30078125 C18.58574238 23.52876103 19.41627331 32.2243437 15.23046875 42.63671875 C11.41229516 49.69270355 5.20955006 55.62868288 -1.234375 60.34375 C-1.894375 60.34375 -2.554375 60.34375 -3.234375 60.34375 C-2.77212524 61.21326294 -2.77212524 61.21326294 -2.30053711 62.1003418 C-0.90959846 64.73651175 0.45935956 67.38350428 1.828125 70.03125 C2.31345703 70.94326172 2.79878906 71.85527344 3.29882812 72.79492188 C3.75322266 73.68115234 4.20761719 74.56738281 4.67578125 75.48046875 C5.09996338 76.29217529 5.52414551 77.10388184 5.96118164 77.94018555 C6.93331019 80.84476994 6.66478053 82.44545058 5.765625 85.34375 C2.04862058 90.2997559 -3.14450025 93.91587517 -8.234375 97.34375 C-11.49418207 96.33511014 -12.32992943 95.19216766 -14.1796875 92.2578125 C-14.9188391 90.83459279 -15.64414846 89.40414207 -16.359375 87.96875 C-16.76752441 87.17307617 -17.17567383 86.37740234 -17.59619141 85.55761719 C-19.15888883 82.49448563 -20.69755858 79.41995277 -22.234375 76.34375 C-22.95369845 74.90653668 -23.67310474 73.46936483 -24.39257812 72.03222656 C-30.86912487 59.08882621 -30.86912487 59.08882621 -33.98876953 52.79931641 C-34.37039246 52.03162933 -34.75201538 51.26394226 -35.14520264 50.47299194 C-35.86261566 49.02952734 -36.57843539 47.58526923 -37.29229736 46.14004517 C-38.91611618 42.87640956 -40.59728974 39.68737214 -42.44775391 36.54589844 C-44.42543757 33.0013099 -45.01238016 31.32022083 -44.234375 27.34375 C-42.62899761 25.61796931 -40.95033898 23.95961608 -39.234375 22.34375 C-38.34621094 21.49296875 -37.45804688 20.6421875 -36.54296875 19.765625 C-11.63235607 -3.41649619 -11.63235607 -3.41649619 0 0 Z " fill="#F7F3C1" transform="translate(201.234375,445.65625)"/>
<path d="M0 0 C1.48593684 4.93471594 0.56074422 9.3116969 -0.25 14.28125 C-0.38696289 15.17235474 -0.52392578 16.06345947 -0.66503906 16.98156738 C-1.24962428 20.7832023 -1.85427378 24.58158232 -2.45703125 28.38037109 C-2.89495411 31.15880126 -3.32270133 33.93866946 -3.75 36.71875 C-3.88954102 37.57408325 -4.02908203 38.4294165 -4.17285156 39.31066895 C-5.28423824 46.55318127 -4.27416921 50.79591055 -1.0234375 57.4375 C-0.4292232 58.67425619 0.16451249 59.91124244 0.7578125 61.1484375 C1.69161554 63.08000269 2.62954927 65.00925268 3.57617188 66.93457031 C4.4927507 68.80488656 5.39190967 70.68280507 6.2890625 72.5625 C7.10431396 74.23505859 7.10431396 74.23505859 7.93603516 75.94140625 C9.09052198 79.26022472 9.25973029 80.74396231 8 84 C6.57299805 85.40966797 6.57299805 85.40966797 4.76171875 86.4921875 C3.77848633 87.08386719 3.77848633 87.08386719 2.77539062 87.6875 C2.08638672 88.079375 1.39738281 88.47125 0.6875 88.875 C0.01009766 89.29007812 -0.66730469 89.70515625 -1.36523438 90.1328125 C-6.35201484 93.05761043 -6.35201484 93.05761043 -9.09521484 92.8137207 C-12.55880001 91.33408351 -13.71762477 87.54015744 -15.3125 84.3125 C-15.71291504 83.54736084 -16.11333008 82.78222168 -16.52587891 81.99389648 C-18.37698407 78.42390796 -20.09671226 74.89002454 -21.47265625 71.109375 C-25.86573681 59.99818518 -33.16418215 56.85960781 -43.49902344 52.17333984 C-47.46523807 50.31257964 -51.25800122 48.16791933 -55.0625 46 C-56.07074829 45.43865356 -56.07074829 45.43865356 -57.09936523 44.8659668 C-59.68526395 43.41175685 -61.891652 42.108348 -64 40 C-63.9375 37.625 -63.9375 37.625 -63 35 C-59.71134585 32.13979727 -56.1913014 29.65890646 -52.5625 27.25 C-51.65628906 26.63640625 -50.75007813 26.0228125 -49.81640625 25.390625 C-46.40944367 23.70840769 -44.76280009 23.42609199 -41 24 C-38.06618308 25.27326856 -35.3620735 26.8518165 -32.625 28.5 C-31.88894531 28.92925781 -31.15289062 29.35851562 -30.39453125 29.80078125 C-28.58955456 30.85563776 -26.79381282 31.92626881 -25 33 C-24.95101562 31.77023437 -24.90203125 30.54046875 -24.8515625 29.2734375 C-24.77648971 27.64060434 -24.70094385 26.00779288 -24.625 24.375 C-24.5940625 23.56675781 -24.563125 22.75851562 -24.53125 21.92578125 C-24.10294132 13.14545329 -24.10294132 13.14545329 -22 9 C-19.84740636 7.31737964 -17.98148536 6.0476241 -15.625 4.75 C-15.0475 4.41226562 -14.47 4.07453125 -13.875 3.7265625 C-12.26434173 2.79252779 -10.63269424 1.89495833 -9 1 C-8.26007813 0.58492188 -7.52015625 0.16984375 -6.7578125 -0.2578125 C-4.27120087 -1.30771519 -2.54025274 -0.70562576 0 0 Z " fill="#F7F3C1" transform="translate(376,320)"/>
<path d="M0 0 C3.89503962 4.02707486 5.73866094 8.59183104 7.78515625 13.703125 C8.12751816 14.54035095 8.46988007 15.3775769 8.82261658 16.24017334 C9.54329882 18.00699132 10.25998407 19.77544434 10.97290039 21.54541016 C12.05464404 24.23050003 13.14822852 26.91050978 14.24414062 29.58984375 C14.94601495 31.31481851 15.64720883 33.04007033 16.34765625 34.765625 C16.83057884 35.95203583 16.83057884 35.95203583 17.32325745 37.16241455 C19.42124034 42.38008393 21.28098373 47.64572124 23 53 C24.15757812 52.62746094 25.31515625 52.25492188 26.5078125 51.87109375 C28.04666353 51.39254861 29.58573808 50.91472183 31.125 50.4375 C31.88554688 50.19064453 32.64609375 49.94378906 33.4296875 49.68945312 C37.90900364 48.31862793 41.4038178 47.42396774 46 49 C47.390625 50.671875 47.390625 50.671875 48.25 52.75 C48.55808594 53.47316406 48.86617187 54.19632813 49.18359375 54.94140625 C49.45300781 55.62074219 49.72242188 56.30007812 50 57 C50.433125 57.886875 50.86625 58.77375 51.3125 59.6875 C52.21580341 62.7258842 52.37243632 64.10263443 51 67 C43.88172664 70.09679785 36.32422166 72.04865287 28.875 74.1875 C27.62589844 74.55552734 26.37679687 74.92355469 25.08984375 75.30273438 C23.88199219 75.65013672 22.67414062 75.99753906 21.4296875 76.35546875 C20.33897949 76.67153076 19.24827148 76.98759277 18.12451172 77.31323242 C14.85536735 78.03179025 12.32152793 78.49517257 9 78 C7.35595703 76.02905273 7.35595703 76.02905273 6 73 C5.72186462 72.38996124 5.44372925 71.77992249 5.15716553 71.15139771 C4.17403651 68.95870995 3.23641966 66.75015768 2.3046875 64.53515625 C1.95543716 63.71295593 1.60618683 62.89075562 1.24635315 62.04364014 C0.11846807 59.38497454 -1.00370216 56.72394984 -2.125 54.0625 C-2.89438722 52.24110309 -3.6638372 50.41973269 -4.43334961 48.59838867 C-5.94307242 45.021913 -7.44961317 41.44412016 -8.95361328 37.86523438 C-10.18950242 34.92442716 -11.42864607 31.98509097 -12.67529297 29.04882812 C-13.97982267 25.97364497 -15.27375291 22.89432205 -16.5625 19.8125 C-16.92553223 18.96115479 -17.28856445 18.10980957 -17.66259766 17.23266602 C-20.64877537 10.00714201 -20.64877537 10.00714201 -20 6 C-15.32301885 1.94661633 -6.17120029 -0.99886415 0 0 Z " fill="#F7F3C1" transform="translate(660,196)"/>
<path d="M0 0 C5.69302126 10.65145913 11.24729971 21.36981054 16.66937256 32.16149902 C17.30688437 33.42968212 17.94576226 34.69717941 18.58599854 35.96398926 C19.49115206 37.75646424 20.39023741 39.55199957 21.2890625 41.34765625 C21.81193848 42.38929932 22.33481445 43.43094238 22.87353516 44.50415039 C24 47 24 47 24 49 C29.14793357 46.26173746 33.39808201 43.13705817 37.7890625 39.29296875 C40 38 40 38 42.56640625 37.9765625 C45.88698892 39.37301942 46.65991395 41.02324609 48.3125 44.1875 C48.82425781 45.12980469 49.33601563 46.07210937 49.86328125 47.04296875 C51.15373799 50.3999301 51.58419984 52.44255542 51 56 C48.9375 58.3515625 48.9375 58.3515625 46 60.625 C45.47470703 61.03886963 44.94941406 61.45273926 44.40820312 61.87915039 C42.62158258 63.27514132 40.8131904 64.63872238 39 66 C37.59370747 67.06895447 36.18745886 68.13796672 34.78125 69.20703125 C31.41024152 71.75746529 28.02846599 74.29218767 24.6171875 76.78857422 C23.32124956 77.75935381 22.07330946 78.79406635 20.84375 79.84765625 C18.45995504 81.3375281 16.76284468 81.08343972 14 81 C7.03995206 67.97769783 0.37532815 54.83062269 -6.09887695 41.56030273 C-7.58762378 38.51104131 -9.08365537 35.46542245 -10.58007812 32.41992188 C-11.53428833 30.46896229 -12.48808075 28.5177983 -13.44140625 26.56640625 C-14.10844322 25.21029991 -14.10844322 25.21029991 -14.78895569 23.82679749 C-15.19705978 22.98749191 -15.60516388 22.14818634 -16.02563477 21.28344727 C-16.38407974 20.55021744 -16.74252472 19.81698761 -17.11183167 19.0615387 C-17.98588072 17.03277244 -18.62333896 15.17676742 -19 13 C-15.39753579 6.39799445 -7.68176964 -0.54584498 0 0 Z " fill="#F7F3C1" transform="translate(229,417)"/>
<path d="M0 0 C4.65472154 3.35572948 8.46289278 7.60048359 10.6875 12.9375 C11.72493962 19.35514977 10.38969741 24.63662643 6.6875 29.9375 C2.39449923 34.12042383 -1.6719952 36.00617042 -7.625 36.3125 C-12.55242711 36.17312186 -16.35873154 34.90067287 -20.3125 31.9375 C-25.45819143 26.31937536 -26.6733091 21.25874869 -26.59375 13.73046875 C-26.0535006 8.36549211 -23.70119356 5.22458184 -19.75 1.5625 C-13.96054625 -2.29713583 -6.46863102 -2.07484391 0 0 Z " fill="#02113D" transform="translate(545.3125,264.0625)"/>
<path d="M0 0 C5.38881741 3.02851539 9.25954428 7.6905118 12.3125 13 C13.44075367 18.01446075 13.43178249 21.97617425 11.6875 26.75 C9.65671259 29.83119469 8.02399652 31.56766122 4.875 33.5 C1.0625 34.25 1.0625 34.25 -2.125 34.5 C-5.65425825 27.08678418 -8.81379343 19.52846927 -11.9375 11.9375 C-12.34669678 10.94927246 -12.75589355 9.96104492 -13.17749023 8.94287109 C-13.55848877 8.01168457 -13.9394873 7.08049805 -14.33203125 6.12109375 C-14.6772583 5.2798999 -15.02248535 4.43870605 -15.37817383 3.57202148 C-16.125 1.5 -16.125 1.5 -16.125 -0.5 C-10.69846803 -2.30884399 -5.28106952 -2.33684753 0 0 Z " fill="#03133E" transform="translate(737.125,200.5)"/>
<path d="M0 0 C2.4375 1 2.4375 1 4.3125 3.1875 C5.76420532 6.81676329 5.79044315 8.31698808 4.4375 12 C2.2845782 14.25568656 -0.05436331 16.15327794 -2.5625 18 C-3.62349328 16.26164943 -4.66076483 14.50880196 -5.6875 12.75 C-6.26757812 11.77546875 -6.84765625 10.8009375 -7.4453125 9.796875 C-8.5625 7 -8.5625 7 -7.85546875 4.75390625 C-5.58586103 1.67519366 -3.94453322 0 0 0 Z " fill="#081742" transform="translate(191.5625,471)"/>
<path d="M0 0 C2.875 2.0625 2.875 2.0625 5 5 C5.25 8.625 5.25 8.625 4 12 C1.69917985 13.55756233 -0.29922507 14.16521502 -3 15 C-5.53309233 10.35796103 -7.46515599 6.34844008 -8 1 C-4.90786415 -0.03071195 -3.21050376 -0.45864339 0 0 Z " fill="#0D1C45" transform="translate(609,233)"/>
<path d="M0 0 C4.44995051 2.22497525 6.60084691 4.44633995 10 8 C8.74874616 11.75376152 7.4347596 12.24073289 4 14 C3.34 14 2.68 14 2 14 C1.34 9.38 0.68 4.76 0 0 Z " fill="#0C1C45" transform="translate(297,405)"/>
</svg>
